<mxfile host="app.diagrams.net" modified="2023-06-22T20:54:20.033Z" agent="Mozilla/5.0 (Windows NT 10.0; Win64; x64) AppleWebKit/537.36 (KHTML, like Gecko) Chrome/114.0.0.0 Safari/537.36" etag="kBSR91appDO6Er3vR_AJ" version="21.3.0" type="device">
  <diagram id="R2lEEEUBdFMjLlhIrx00" name="Page-1">
    <mxGraphModel dx="3038" dy="1813" grid="1" gridSize="10" guides="1" tooltips="1" connect="1" arrows="1" fold="1" page="0" pageScale="1" pageWidth="850" pageHeight="1100" math="0" shadow="0" extFonts="Permanent Marker^https://fonts.googleapis.com/css?family=Permanent+Marker">
      <root>
        <mxCell id="0" />
        <mxCell id="1" parent="0" />
        <mxCell id="_7YUsY37ZqRuh6ZpaFpD-2" value="STUDENT" style="rounded=0;whiteSpace=wrap;html=1;fillColor=#d5e8d4;strokeColor=#82b366;" parent="1" vertex="1">
          <mxGeometry x="-670" y="-480" width="120" height="60" as="geometry" />
        </mxCell>
        <mxCell id="_7YUsY37ZqRuh6ZpaFpD-3" value="Ski" style="rounded=0;whiteSpace=wrap;html=1;fillColor=#d5e8d4;strokeColor=#82b366;" parent="1" vertex="1">
          <mxGeometry x="240" y="-350" width="120" height="60" as="geometry" />
        </mxCell>
        <mxCell id="_7YUsY37ZqRuh6ZpaFpD-4" value="COURSE" style="rounded=0;whiteSpace=wrap;html=1;fillColor=#d5e8d4;strokeColor=#82b366;" parent="1" vertex="1">
          <mxGeometry x="-670" y="10" width="120" height="60" as="geometry" />
        </mxCell>
        <mxCell id="_7YUsY37ZqRuh6ZpaFpD-5" value="AREA" style="rounded=0;whiteSpace=wrap;html=1;fillColor=#d5e8d4;strokeColor=#82b366;" parent="1" vertex="1">
          <mxGeometry x="-670" y="480" width="120" height="60" as="geometry" />
        </mxCell>
        <mxCell id="_7YUsY37ZqRuh6ZpaFpD-7" value="EMPLOYEE" style="rounded=0;whiteSpace=wrap;html=1;fillColor=#d5e8d4;strokeColor=#82b366;" parent="1" vertex="1">
          <mxGeometry x="-10" y="10" width="120" height="60" as="geometry" />
        </mxCell>
        <mxCell id="TnhRacV6PNLluVVr3HMx-4" style="edgeStyle=orthogonalEdgeStyle;rounded=0;orthogonalLoop=1;jettySize=auto;html=1;exitX=1;exitY=0.5;exitDx=0;exitDy=0;entryX=0;entryY=0.5;entryDx=0;entryDy=0;endArrow=none;endFill=0;" edge="1" parent="1" source="_7YUsY37ZqRuh6ZpaFpD-8" target="mtELeGEA9m5529zmG4a9-16">
          <mxGeometry relative="1" as="geometry" />
        </mxCell>
        <mxCell id="TnhRacV6PNLluVVr3HMx-5" style="rounded=0;orthogonalLoop=1;jettySize=auto;html=1;exitX=0;exitY=0.5;exitDx=0;exitDy=0;entryX=1;entryY=0.5;entryDx=0;entryDy=0;strokeColor=none;endArrow=none;endFill=0;" edge="1" parent="1" source="_7YUsY37ZqRuh6ZpaFpD-8" target="_7YUsY37ZqRuh6ZpaFpD-103">
          <mxGeometry relative="1" as="geometry">
            <mxPoint x="-40" y="-660" as="targetPoint" />
          </mxGeometry>
        </mxCell>
        <mxCell id="TnhRacV6PNLluVVr3HMx-6" style="rounded=0;orthogonalLoop=1;jettySize=auto;html=1;exitX=0;exitY=0.5;exitDx=0;exitDy=0;entryX=1;entryY=0.5;entryDx=0;entryDy=0;endArrow=none;endFill=0;" edge="1" parent="1" source="_7YUsY37ZqRuh6ZpaFpD-8" target="_7YUsY37ZqRuh6ZpaFpD-103">
          <mxGeometry relative="1" as="geometry" />
        </mxCell>
        <mxCell id="TnhRacV6PNLluVVr3HMx-7" style="rounded=0;orthogonalLoop=1;jettySize=auto;html=1;exitX=0;exitY=0.5;exitDx=0;exitDy=0;endArrow=none;endFill=0;" edge="1" parent="1" source="_7YUsY37ZqRuh6ZpaFpD-8">
          <mxGeometry relative="1" as="geometry">
            <mxPoint x="-30" y="-610" as="targetPoint" />
          </mxGeometry>
        </mxCell>
        <mxCell id="TnhRacV6PNLluVVr3HMx-8" style="rounded=0;orthogonalLoop=1;jettySize=auto;html=1;exitX=0;exitY=0.5;exitDx=0;exitDy=0;entryX=1;entryY=0.5;entryDx=0;entryDy=0;endArrow=none;endFill=0;" edge="1" parent="1" source="_7YUsY37ZqRuh6ZpaFpD-8" target="_7YUsY37ZqRuh6ZpaFpD-104">
          <mxGeometry relative="1" as="geometry" />
        </mxCell>
        <mxCell id="_7YUsY37ZqRuh6ZpaFpD-8" value="ACCOMODATION" style="rounded=0;whiteSpace=wrap;html=1;fillColor=#d5e8d4;strokeColor=#82b366;" parent="1" vertex="1">
          <mxGeometry y="-640" width="120" height="60" as="geometry" />
        </mxCell>
        <mxCell id="_7YUsY37ZqRuh6ZpaFpD-13" value="Address" style="ellipse;shape=doubleEllipse;margin=3;whiteSpace=wrap;html=1;align=center;" parent="1" vertex="1">
          <mxGeometry x="-540" y="-610" width="100" height="40" as="geometry" />
        </mxCell>
        <mxCell id="_7YUsY37ZqRuh6ZpaFpD-14" value="Student_id" style="ellipse;whiteSpace=wrap;html=1;align=center;fontStyle=4;fillColor=#dae8fc;strokeColor=#6c8ebf;" parent="1" vertex="1">
          <mxGeometry x="-870" y="-450" width="100" height="40" as="geometry" />
        </mxCell>
        <mxCell id="_7YUsY37ZqRuh6ZpaFpD-15" value="Street" style="ellipse;whiteSpace=wrap;html=1;" parent="1" vertex="1">
          <mxGeometry x="-410" y="-710" width="100" height="40" as="geometry" />
        </mxCell>
        <mxCell id="_7YUsY37ZqRuh6ZpaFpD-16" value="House_num" style="ellipse;whiteSpace=wrap;html=1;" parent="1" vertex="1">
          <mxGeometry x="-410" y="-660" width="100" height="40" as="geometry" />
        </mxCell>
        <mxCell id="_7YUsY37ZqRuh6ZpaFpD-17" value="Post_code" style="ellipse;whiteSpace=wrap;html=1;" parent="1" vertex="1">
          <mxGeometry x="-410" y="-510" width="100" height="40" as="geometry" />
        </mxCell>
        <mxCell id="_7YUsY37ZqRuh6ZpaFpD-18" value="" style="endArrow=none;html=1;rounded=0;entryX=1;entryY=0.5;entryDx=0;entryDy=0;exitX=0;exitY=0.5;exitDx=0;exitDy=0;" parent="1" source="_7YUsY37ZqRuh6ZpaFpD-16" target="_7YUsY37ZqRuh6ZpaFpD-13" edge="1">
          <mxGeometry relative="1" as="geometry">
            <mxPoint x="-400" y="-690" as="sourcePoint" />
            <mxPoint x="-240" y="-690" as="targetPoint" />
          </mxGeometry>
        </mxCell>
        <mxCell id="_7YUsY37ZqRuh6ZpaFpD-19" value="" style="endArrow=none;html=1;rounded=0;exitX=1;exitY=0.5;exitDx=0;exitDy=0;entryX=0;entryY=0.5;entryDx=0;entryDy=0;" parent="1" source="_7YUsY37ZqRuh6ZpaFpD-13" target="_7YUsY37ZqRuh6ZpaFpD-15" edge="1">
          <mxGeometry relative="1" as="geometry">
            <mxPoint x="-400" y="-690" as="sourcePoint" />
            <mxPoint x="-580" y="-792.5" as="targetPoint" />
          </mxGeometry>
        </mxCell>
        <mxCell id="_7YUsY37ZqRuh6ZpaFpD-20" value="" style="endArrow=none;html=1;rounded=0;exitX=1;exitY=0.5;exitDx=0;exitDy=0;entryX=0;entryY=0.5;entryDx=0;entryDy=0;" parent="1" source="_7YUsY37ZqRuh6ZpaFpD-13" target="_7YUsY37ZqRuh6ZpaFpD-17" edge="1">
          <mxGeometry relative="1" as="geometry">
            <mxPoint x="-400" y="-690" as="sourcePoint" />
            <mxPoint x="-330" y="-750" as="targetPoint" />
          </mxGeometry>
        </mxCell>
        <mxCell id="_7YUsY37ZqRuh6ZpaFpD-21" value="Birthdate" style="ellipse;whiteSpace=wrap;html=1;" parent="1" vertex="1">
          <mxGeometry x="-870" y="-300" width="100" height="40" as="geometry" />
        </mxCell>
        <mxCell id="_7YUsY37ZqRuh6ZpaFpD-22" value="Phonenumber" style="ellipse;whiteSpace=wrap;html=1;" parent="1" vertex="1">
          <mxGeometry x="-870" y="-500" width="100" height="40" as="geometry" />
        </mxCell>
        <mxCell id="_7YUsY37ZqRuh6ZpaFpD-24" value="Sex" style="ellipse;whiteSpace=wrap;html=1;" parent="1" vertex="1">
          <mxGeometry x="-760" y="-610" width="100" height="40" as="geometry" />
        </mxCell>
        <mxCell id="_7YUsY37ZqRuh6ZpaFpD-27" value="Experience_level" style="ellipse;whiteSpace=wrap;html=1;" parent="1" vertex="1">
          <mxGeometry x="-870" y="-350" width="100" height="40" as="geometry" />
        </mxCell>
        <mxCell id="_7YUsY37ZqRuh6ZpaFpD-30" value="Course_type" style="ellipse;whiteSpace=wrap;html=1;" parent="1" vertex="1">
          <mxGeometry x="-870" y="-555" width="100" height="45" as="geometry" />
        </mxCell>
        <mxCell id="_7YUsY37ZqRuh6ZpaFpD-32" value="Adult" style="ellipse;whiteSpace=wrap;html=1;align=center;dashed=1;" parent="1" vertex="1">
          <mxGeometry x="-650" y="-610" width="100" height="40" as="geometry" />
        </mxCell>
        <mxCell id="_7YUsY37ZqRuh6ZpaFpD-35" value="Brand" style="ellipse;whiteSpace=wrap;html=1;align=center;" parent="1" vertex="1">
          <mxGeometry x="400" y="-360" width="100" height="40" as="geometry" />
        </mxCell>
        <mxCell id="_7YUsY37ZqRuh6ZpaFpD-36" value="Ski_id" style="ellipse;whiteSpace=wrap;html=1;align=center;fontStyle=4;fillColor=#dae8fc;strokeColor=#6c8ebf;" parent="1" vertex="1">
          <mxGeometry x="400" y="-410" width="100" height="40" as="geometry" />
        </mxCell>
        <mxCell id="_7YUsY37ZqRuh6ZpaFpD-41" value="Length" style="ellipse;whiteSpace=wrap;html=1;align=center;" parent="1" vertex="1">
          <mxGeometry x="400" y="-310" width="100" height="40" as="geometry" />
        </mxCell>
        <mxCell id="_7YUsY37ZqRuh6ZpaFpD-44" value="Country" style="ellipse;whiteSpace=wrap;html=1;align=center;" parent="1" vertex="1">
          <mxGeometry x="-960" y="362" width="100" height="40" as="geometry" />
        </mxCell>
        <mxCell id="_7YUsY37ZqRuh6ZpaFpD-45" value="Area_id" style="ellipse;whiteSpace=wrap;html=1;align=center;fontStyle=4;fillColor=#dae8fc;strokeColor=#6c8ebf;" parent="1" vertex="1">
          <mxGeometry x="-810" y="640" width="100" height="40" as="geometry" />
        </mxCell>
        <mxCell id="_7YUsY37ZqRuh6ZpaFpD-46" value="Name" style="ellipse;whiteSpace=wrap;html=1;align=center;" parent="1" vertex="1">
          <mxGeometry x="-810" y="490" width="100" height="40" as="geometry" />
        </mxCell>
        <mxCell id="_7YUsY37ZqRuh6ZpaFpD-47" value="Difficulty_level" style="ellipse;whiteSpace=wrap;html=1;align=center;" parent="1" vertex="1">
          <mxGeometry x="-810" y="540" width="100" height="40" as="geometry" />
        </mxCell>
        <mxCell id="_7YUsY37ZqRuh6ZpaFpD-48" value="Opening_time" style="ellipse;whiteSpace=wrap;html=1;align=center;" parent="1" vertex="1">
          <mxGeometry x="-810" y="390" width="100" height="40" as="geometry" />
        </mxCell>
        <mxCell id="_7YUsY37ZqRuh6ZpaFpD-49" value="Closing_time" style="ellipse;whiteSpace=wrap;html=1;align=center;" parent="1" vertex="1">
          <mxGeometry x="-810" y="440" width="100" height="40" as="geometry" />
        </mxCell>
        <mxCell id="_7YUsY37ZqRuh6ZpaFpD-50" value="Magic_carpet" style="ellipse;whiteSpace=wrap;html=1;align=center;" parent="1" vertex="1">
          <mxGeometry x="-810" y="590" width="100" height="40" as="geometry" />
        </mxCell>
        <mxCell id="_7YUsY37ZqRuh6ZpaFpD-51" value="Location" style="ellipse;shape=doubleEllipse;margin=3;whiteSpace=wrap;html=1;align=center;" parent="1" vertex="1">
          <mxGeometry x="-810" y="340" width="100" height="40" as="geometry" />
        </mxCell>
        <mxCell id="_7YUsY37ZqRuh6ZpaFpD-52" value="City" style="ellipse;whiteSpace=wrap;html=1;align=center;" parent="1" vertex="1">
          <mxGeometry x="-960" y="318" width="100" height="40" as="geometry" />
        </mxCell>
        <mxCell id="_7YUsY37ZqRuh6ZpaFpD-57" value="" style="endArrow=none;html=1;rounded=0;entryX=1;entryY=0.5;entryDx=0;entryDy=0;" parent="1" target="_7YUsY37ZqRuh6ZpaFpD-44" edge="1">
          <mxGeometry relative="1" as="geometry">
            <mxPoint x="-810" y="360" as="sourcePoint" />
            <mxPoint x="-350" y="260" as="targetPoint" />
          </mxGeometry>
        </mxCell>
        <mxCell id="_7YUsY37ZqRuh6ZpaFpD-58" value="" style="endArrow=none;html=1;rounded=0;exitX=0;exitY=0.5;exitDx=0;exitDy=0;entryX=1;entryY=0.5;entryDx=0;entryDy=0;" parent="1" source="_7YUsY37ZqRuh6ZpaFpD-51" target="_7YUsY37ZqRuh6ZpaFpD-52" edge="1">
          <mxGeometry relative="1" as="geometry">
            <mxPoint x="-510" y="260" as="sourcePoint" />
            <mxPoint x="-580" y="340" as="targetPoint" />
          </mxGeometry>
        </mxCell>
        <mxCell id="_7YUsY37ZqRuh6ZpaFpD-62" value="Start_location" style="ellipse;whiteSpace=wrap;html=1;align=center;" parent="1" vertex="1">
          <mxGeometry x="-320" y="690" width="100" height="40" as="geometry" />
        </mxCell>
        <mxCell id="_7YUsY37ZqRuh6ZpaFpD-63" value="End_location" style="ellipse;whiteSpace=wrap;html=1;align=center;" parent="1" vertex="1">
          <mxGeometry x="-210" y="690" width="100" height="40" as="geometry" />
        </mxCell>
        <mxCell id="_7YUsY37ZqRuh6ZpaFpD-64" value="Capacity" style="ellipse;whiteSpace=wrap;html=1;align=center;" parent="1" vertex="1">
          <mxGeometry x="-180" y="625" width="100" height="40" as="geometry" />
        </mxCell>
        <mxCell id="_7YUsY37ZqRuh6ZpaFpD-65" value="Type" style="ellipse;whiteSpace=wrap;html=1;align=center;" parent="1" vertex="1">
          <mxGeometry x="-430" y="690" width="100" height="40" as="geometry" />
        </mxCell>
        <mxCell id="_7YUsY37ZqRuh6ZpaFpD-66" value="Employee_id" style="ellipse;whiteSpace=wrap;html=1;align=center;fontStyle=4;fillColor=#dae8fc;strokeColor=#6c8ebf;" parent="1" vertex="1">
          <mxGeometry x="190" y="20" width="100" height="40" as="geometry" />
        </mxCell>
        <mxCell id="_7YUsY37ZqRuh6ZpaFpD-68" value="Name" style="ellipse;whiteSpace=wrap;html=1;align=center;" parent="1" vertex="1">
          <mxGeometry x="190" y="70" width="100" height="40" as="geometry" />
        </mxCell>
        <mxCell id="_7YUsY37ZqRuh6ZpaFpD-76" value="Birthdate" style="ellipse;whiteSpace=wrap;html=1;" parent="1" vertex="1">
          <mxGeometry x="190" y="270" width="100" height="40" as="geometry" />
        </mxCell>
        <mxCell id="_7YUsY37ZqRuh6ZpaFpD-77" value="Phonenumber" style="ellipse;whiteSpace=wrap;html=1;" parent="1" vertex="1">
          <mxGeometry x="190" y="370" width="100" height="40" as="geometry" />
        </mxCell>
        <mxCell id="_7YUsY37ZqRuh6ZpaFpD-78" value="Job_title" style="ellipse;whiteSpace=wrap;html=1;" parent="1" vertex="1">
          <mxGeometry x="190" y="170" width="100" height="40" as="geometry" />
        </mxCell>
        <mxCell id="_7YUsY37ZqRuh6ZpaFpD-79" value="Sex" style="ellipse;whiteSpace=wrap;html=1;" parent="1" vertex="1">
          <mxGeometry x="190" y="120" width="100" height="40" as="geometry" />
        </mxCell>
        <mxCell id="_7YUsY37ZqRuh6ZpaFpD-80" value="Age" style="ellipse;whiteSpace=wrap;html=1;align=center;dashed=1;" parent="1" vertex="1">
          <mxGeometry x="190" y="220" width="100" height="40" as="geometry" />
        </mxCell>
        <mxCell id="_7YUsY37ZqRuh6ZpaFpD-83" value="SALARY" style="rounded=0;whiteSpace=wrap;html=1;fillColor=#d5e8d4;strokeColor=#82b366;" parent="1" vertex="1">
          <mxGeometry x="-340" y="270" width="120" height="60" as="geometry" />
        </mxCell>
        <mxCell id="_7YUsY37ZqRuh6ZpaFpD-84" value="Instructor_level" style="ellipse;whiteSpace=wrap;html=1;" parent="1" vertex="1">
          <mxGeometry x="190" y="420" width="100" height="40" as="geometry" />
        </mxCell>
        <mxCell id="_7YUsY37ZqRuh6ZpaFpD-87" value="Salary_group" style="ellipse;whiteSpace=wrap;html=1;align=center;fontStyle=4;fillColor=#dae8fc;strokeColor=#6c8ebf;" parent="1" vertex="1">
          <mxGeometry x="-400" y="358" width="100" height="40" as="geometry" />
        </mxCell>
        <mxCell id="_7YUsY37ZqRuh6ZpaFpD-88" value="Salary" style="ellipse;whiteSpace=wrap;html=1;" parent="1" vertex="1">
          <mxGeometry x="-270" y="358" width="100" height="40" as="geometry" />
        </mxCell>
        <mxCell id="_7YUsY37ZqRuh6ZpaFpD-89" value="Course_id" style="ellipse;whiteSpace=wrap;html=1;align=center;fontStyle=4;fillColor=#dae8fc;strokeColor=#6c8ebf;" parent="1" vertex="1">
          <mxGeometry x="-810" y="50" width="100" height="40" as="geometry" />
        </mxCell>
        <mxCell id="_7YUsY37ZqRuh6ZpaFpD-90" value="Course_level" style="ellipse;whiteSpace=wrap;html=1;" parent="1" vertex="1">
          <mxGeometry x="-810" y="100" width="100" height="40" as="geometry" />
        </mxCell>
        <mxCell id="_7YUsY37ZqRuh6ZpaFpD-91" value="Start_date" style="ellipse;whiteSpace=wrap;html=1;" parent="1" vertex="1">
          <mxGeometry x="-810" y="-50" width="100" height="40" as="geometry" />
        </mxCell>
        <mxCell id="_7YUsY37ZqRuh6ZpaFpD-92" value="End_date" style="ellipse;whiteSpace=wrap;html=1;" parent="1" vertex="1">
          <mxGeometry x="-810" width="100" height="40" as="geometry" />
        </mxCell>
        <mxCell id="_7YUsY37ZqRuh6ZpaFpD-103" value="Type" style="ellipse;whiteSpace=wrap;html=1;" parent="1" vertex="1">
          <mxGeometry x="-130" y="-680" width="100" height="40" as="geometry" />
        </mxCell>
        <mxCell id="_7YUsY37ZqRuh6ZpaFpD-104" value="Name" style="ellipse;whiteSpace=wrap;html=1;" parent="1" vertex="1">
          <mxGeometry x="-130" y="-580" width="100" height="40" as="geometry" />
        </mxCell>
        <mxCell id="_7YUsY37ZqRuh6ZpaFpD-105" value="RENTS" style="shape=rhombus;perimeter=rhombusPerimeter;whiteSpace=wrap;html=1;align=center;" parent="1" vertex="1">
          <mxGeometry y="-350" width="120" height="60" as="geometry" />
        </mxCell>
        <mxCell id="_7YUsY37ZqRuh6ZpaFpD-115" value="IS IN" style="shape=rhombus;perimeter=rhombusPerimeter;whiteSpace=wrap;html=1;align=center;" parent="1" vertex="1">
          <mxGeometry x="-670" y="-185" width="120" height="60" as="geometry" />
        </mxCell>
        <mxCell id="_7YUsY37ZqRuh6ZpaFpD-148" value="SUPERVISES" style="shape=rhombus;perimeter=rhombusPerimeter;whiteSpace=wrap;html=1;align=center;" parent="1" vertex="1">
          <mxGeometry x="-340" y="10" width="120" height="60" as="geometry" />
        </mxCell>
        <mxCell id="_7YUsY37ZqRuh6ZpaFpD-160" value="" style="endArrow=none;html=1;rounded=0;entryX=0;entryY=0.5;entryDx=0;entryDy=0;exitX=1;exitY=0.5;exitDx=0;exitDy=0;" parent="1" source="_7YUsY37ZqRuh6ZpaFpD-2" target="_7YUsY37ZqRuh6ZpaFpD-105" edge="1">
          <mxGeometry relative="1" as="geometry">
            <mxPoint x="-230" y="-100" as="sourcePoint" />
            <mxPoint x="-70" y="-100" as="targetPoint" />
          </mxGeometry>
        </mxCell>
        <mxCell id="_7YUsY37ZqRuh6ZpaFpD-161" value="1" style="resizable=0;html=1;whiteSpace=wrap;align=right;verticalAlign=bottom;" parent="_7YUsY37ZqRuh6ZpaFpD-160" connectable="0" vertex="1">
          <mxGeometry x="1" relative="1" as="geometry" />
        </mxCell>
        <mxCell id="_7YUsY37ZqRuh6ZpaFpD-162" value="HAS" style="shape=rhombus;perimeter=rhombusPerimeter;whiteSpace=wrap;html=1;align=center;" parent="1" vertex="1">
          <mxGeometry x="-340" y="160" width="120" height="60" as="geometry" />
        </mxCell>
        <mxCell id="_7YUsY37ZqRuh6ZpaFpD-171" value="STAYS AT" style="shape=rhombus;perimeter=rhombusPerimeter;whiteSpace=wrap;html=1;align=center;" parent="1" vertex="1">
          <mxGeometry y="-480" width="120" height="60" as="geometry" />
        </mxCell>
        <mxCell id="_7YUsY37ZqRuh6ZpaFpD-178" value="" style="endArrow=none;html=1;rounded=0;exitX=1;exitY=0.5;exitDx=0;exitDy=0;entryX=0;entryY=0.5;entryDx=0;entryDy=0;" parent="1" source="_7YUsY37ZqRuh6ZpaFpD-2" target="_7YUsY37ZqRuh6ZpaFpD-171" edge="1">
          <mxGeometry relative="1" as="geometry">
            <mxPoint x="-10" y="-170" as="sourcePoint" />
            <mxPoint x="100" y="-240" as="targetPoint" />
          </mxGeometry>
        </mxCell>
        <mxCell id="_7YUsY37ZqRuh6ZpaFpD-179" value="N" style="resizable=0;html=1;whiteSpace=wrap;align=right;verticalAlign=bottom;" parent="_7YUsY37ZqRuh6ZpaFpD-178" connectable="0" vertex="1">
          <mxGeometry x="1" relative="1" as="geometry" />
        </mxCell>
        <mxCell id="_7YUsY37ZqRuh6ZpaFpD-180" value="" style="endArrow=none;html=1;rounded=0;entryX=0.5;entryY=0;entryDx=0;entryDy=0;exitX=0.5;exitY=1;exitDx=0;exitDy=0;" parent="1" source="_7YUsY37ZqRuh6ZpaFpD-8" target="_7YUsY37ZqRuh6ZpaFpD-171" edge="1">
          <mxGeometry relative="1" as="geometry">
            <mxPoint x="-10" y="-170" as="sourcePoint" />
            <mxPoint x="150" y="-170" as="targetPoint" />
          </mxGeometry>
        </mxCell>
        <mxCell id="_7YUsY37ZqRuh6ZpaFpD-181" value="1" style="resizable=0;html=1;whiteSpace=wrap;align=right;verticalAlign=bottom;" parent="_7YUsY37ZqRuh6ZpaFpD-180" connectable="0" vertex="1">
          <mxGeometry x="1" relative="1" as="geometry" />
        </mxCell>
        <mxCell id="_7YUsY37ZqRuh6ZpaFpD-182" value="IS IN" style="shape=rhombus;perimeter=rhombusPerimeter;whiteSpace=wrap;html=1;align=center;" parent="1" vertex="1">
          <mxGeometry x="-670" y="200" width="120" height="60" as="geometry" />
        </mxCell>
        <mxCell id="_7YUsY37ZqRuh6ZpaFpD-187" value="" style="endArrow=none;html=1;rounded=0;exitX=0.5;exitY=0;exitDx=0;exitDy=0;entryX=0.5;entryY=1;entryDx=0;entryDy=0;" parent="1" source="_7YUsY37ZqRuh6ZpaFpD-5" target="_7YUsY37ZqRuh6ZpaFpD-182" edge="1">
          <mxGeometry relative="1" as="geometry">
            <mxPoint x="-250" y="640" as="sourcePoint" />
            <mxPoint x="-90" y="640" as="targetPoint" />
          </mxGeometry>
        </mxCell>
        <mxCell id="_7YUsY37ZqRuh6ZpaFpD-188" value="1" style="resizable=0;html=1;whiteSpace=wrap;align=right;verticalAlign=bottom;" parent="_7YUsY37ZqRuh6ZpaFpD-187" connectable="0" vertex="1">
          <mxGeometry x="1" relative="1" as="geometry" />
        </mxCell>
        <mxCell id="_7YUsY37ZqRuh6ZpaFpD-192" value="" style="shape=rhombus;perimeter=rhombusPerimeter;whiteSpace=wrap;html=1;align=center;" parent="1" vertex="1">
          <mxGeometry x="-330" y="480" width="120" height="60" as="geometry" />
        </mxCell>
        <mxCell id="_7YUsY37ZqRuh6ZpaFpD-196" value="" style="endArrow=none;html=1;rounded=0;exitX=1;exitY=0.5;exitDx=0;exitDy=0;entryX=0;entryY=0.5;entryDx=0;entryDy=0;" parent="1" source="_7YUsY37ZqRuh6ZpaFpD-5" target="_7YUsY37ZqRuh6ZpaFpD-192" edge="1">
          <mxGeometry relative="1" as="geometry">
            <mxPoint x="-250" y="640" as="sourcePoint" />
            <mxPoint x="-90" y="640" as="targetPoint" />
          </mxGeometry>
        </mxCell>
        <mxCell id="_7YUsY37ZqRuh6ZpaFpD-197" value="1" style="resizable=0;html=1;whiteSpace=wrap;align=right;verticalAlign=bottom;" parent="_7YUsY37ZqRuh6ZpaFpD-196" connectable="0" vertex="1">
          <mxGeometry x="1" relative="1" as="geometry" />
        </mxCell>
        <mxCell id="_7YUsY37ZqRuh6ZpaFpD-198" value="" style="shape=link;html=1;rounded=0;exitX=0.5;exitY=0;exitDx=0;exitDy=0;entryX=0.5;entryY=1;entryDx=0;entryDy=0;" parent="1" source="_7YUsY37ZqRuh6ZpaFpD-202" target="_7YUsY37ZqRuh6ZpaFpD-192" edge="1">
          <mxGeometry relative="1" as="geometry">
            <mxPoint x="-240" y="730" as="sourcePoint" />
            <mxPoint x="-120" y="680" as="targetPoint" />
          </mxGeometry>
        </mxCell>
        <mxCell id="_7YUsY37ZqRuh6ZpaFpD-199" value="N" style="resizable=0;html=1;whiteSpace=wrap;align=right;verticalAlign=bottom;" parent="_7YUsY37ZqRuh6ZpaFpD-198" connectable="0" vertex="1">
          <mxGeometry x="1" relative="1" as="geometry">
            <mxPoint y="20" as="offset" />
          </mxGeometry>
        </mxCell>
        <mxCell id="_7YUsY37ZqRuh6ZpaFpD-200" value="" style="shape=link;html=1;rounded=0;exitX=0.5;exitY=1;exitDx=0;exitDy=0;entryX=0.5;entryY=0;entryDx=0;entryDy=0;" parent="1" source="_7YUsY37ZqRuh6ZpaFpD-4" target="_7YUsY37ZqRuh6ZpaFpD-182" edge="1">
          <mxGeometry relative="1" as="geometry">
            <mxPoint x="-250" y="340" as="sourcePoint" />
            <mxPoint x="-90" y="340" as="targetPoint" />
          </mxGeometry>
        </mxCell>
        <mxCell id="_7YUsY37ZqRuh6ZpaFpD-201" value="N" style="resizable=0;html=1;whiteSpace=wrap;align=right;verticalAlign=bottom;" parent="_7YUsY37ZqRuh6ZpaFpD-200" connectable="0" vertex="1">
          <mxGeometry x="1" relative="1" as="geometry" />
        </mxCell>
        <mxCell id="_7YUsY37ZqRuh6ZpaFpD-202" value="SHUTTLE" style="shape=ext;margin=3;double=1;whiteSpace=wrap;html=1;align=center;fillColor=#d5e8d4;strokeColor=#82b366;" parent="1" vertex="1">
          <mxGeometry x="-335" y="620" width="130" height="50" as="geometry" />
        </mxCell>
        <mxCell id="BchM0v5HkjgXGt6HoBju-3" value="" style="endArrow=none;html=1;rounded=0;exitX=0;exitY=0.5;exitDx=0;exitDy=0;entryX=0.5;entryY=0;entryDx=0;entryDy=0;" parent="1" source="_7YUsY37ZqRuh6ZpaFpD-7" target="_7YUsY37ZqRuh6ZpaFpD-162" edge="1">
          <mxGeometry relative="1" as="geometry">
            <mxPoint x="-40" y="580" as="sourcePoint" />
            <mxPoint x="120" y="580" as="targetPoint" />
          </mxGeometry>
        </mxCell>
        <mxCell id="BchM0v5HkjgXGt6HoBju-4" value="N" style="resizable=0;html=1;whiteSpace=wrap;align=right;verticalAlign=bottom;" parent="BchM0v5HkjgXGt6HoBju-3" connectable="0" vertex="1">
          <mxGeometry x="1" relative="1" as="geometry" />
        </mxCell>
        <mxCell id="BchM0v5HkjgXGt6HoBju-5" value="" style="endArrow=none;html=1;rounded=0;entryX=0.5;entryY=1;entryDx=0;entryDy=0;exitX=0.5;exitY=0;exitDx=0;exitDy=0;" parent="1" source="_7YUsY37ZqRuh6ZpaFpD-83" target="_7YUsY37ZqRuh6ZpaFpD-162" edge="1">
          <mxGeometry relative="1" as="geometry">
            <mxPoint x="270" y="460" as="sourcePoint" />
            <mxPoint x="270" y="520" as="targetPoint" />
          </mxGeometry>
        </mxCell>
        <mxCell id="BchM0v5HkjgXGt6HoBju-6" value="1" style="resizable=0;html=1;whiteSpace=wrap;align=right;verticalAlign=bottom;" parent="BchM0v5HkjgXGt6HoBju-5" connectable="0" vertex="1">
          <mxGeometry x="1" relative="1" as="geometry" />
        </mxCell>
        <mxCell id="BchM0v5HkjgXGt6HoBju-7" value="" style="shape=link;html=1;rounded=0;width=-4.285714285714286;exitX=1;exitY=0.5;exitDx=0;exitDy=0;entryX=0;entryY=0.5;entryDx=0;entryDy=0;" parent="1" source="_7YUsY37ZqRuh6ZpaFpD-4" target="_7YUsY37ZqRuh6ZpaFpD-148" edge="1">
          <mxGeometry relative="1" as="geometry">
            <mxPoint x="-40" y="150" as="sourcePoint" />
            <mxPoint x="120" y="150" as="targetPoint" />
          </mxGeometry>
        </mxCell>
        <mxCell id="BchM0v5HkjgXGt6HoBju-8" value="N" style="resizable=0;html=1;whiteSpace=wrap;align=right;verticalAlign=bottom;" parent="BchM0v5HkjgXGt6HoBju-7" connectable="0" vertex="1">
          <mxGeometry x="1" relative="1" as="geometry" />
        </mxCell>
        <mxCell id="BchM0v5HkjgXGt6HoBju-11" value="" style="endArrow=none;html=1;rounded=0;entryX=1;entryY=0.5;entryDx=0;entryDy=0;exitX=0;exitY=0.5;exitDx=0;exitDy=0;" parent="1" source="_7YUsY37ZqRuh6ZpaFpD-7" target="_7YUsY37ZqRuh6ZpaFpD-148" edge="1">
          <mxGeometry relative="1" as="geometry">
            <mxPoint x="-40" y="150" as="sourcePoint" />
            <mxPoint x="120" y="150" as="targetPoint" />
          </mxGeometry>
        </mxCell>
        <mxCell id="BchM0v5HkjgXGt6HoBju-12" value="1" style="resizable=0;html=1;whiteSpace=wrap;align=right;verticalAlign=bottom;" parent="BchM0v5HkjgXGt6HoBju-11" connectable="0" vertex="1">
          <mxGeometry x="1" relative="1" as="geometry" />
        </mxCell>
        <mxCell id="BchM0v5HkjgXGt6HoBju-13" value="" style="endArrow=none;html=1;rounded=0;entryX=0.5;entryY=1;entryDx=0;entryDy=0;exitX=0.5;exitY=0;exitDx=0;exitDy=0;" parent="1" source="_7YUsY37ZqRuh6ZpaFpD-4" target="_7YUsY37ZqRuh6ZpaFpD-115" edge="1">
          <mxGeometry relative="1" as="geometry">
            <mxPoint x="-40" y="40" as="sourcePoint" />
            <mxPoint x="120" y="40" as="targetPoint" />
          </mxGeometry>
        </mxCell>
        <mxCell id="BchM0v5HkjgXGt6HoBju-14" value="N" style="resizable=0;html=1;whiteSpace=wrap;align=right;verticalAlign=bottom;" parent="BchM0v5HkjgXGt6HoBju-13" connectable="0" vertex="1">
          <mxGeometry x="1" relative="1" as="geometry" />
        </mxCell>
        <mxCell id="BchM0v5HkjgXGt6HoBju-15" value="" style="endArrow=none;html=1;rounded=0;entryX=0.5;entryY=0;entryDx=0;entryDy=0;exitX=0.5;exitY=1;exitDx=0;exitDy=0;" parent="1" source="_7YUsY37ZqRuh6ZpaFpD-2" target="_7YUsY37ZqRuh6ZpaFpD-115" edge="1">
          <mxGeometry relative="1" as="geometry">
            <mxPoint x="-40" y="40" as="sourcePoint" />
            <mxPoint x="120" y="40" as="targetPoint" />
          </mxGeometry>
        </mxCell>
        <mxCell id="BchM0v5HkjgXGt6HoBju-16" value="N" style="resizable=0;html=1;whiteSpace=wrap;align=right;verticalAlign=bottom;" parent="BchM0v5HkjgXGt6HoBju-15" connectable="0" vertex="1">
          <mxGeometry x="1" relative="1" as="geometry" />
        </mxCell>
        <mxCell id="BchM0v5HkjgXGt6HoBju-23" value="" style="endArrow=none;html=1;rounded=0;entryX=1;entryY=0.5;entryDx=0;entryDy=0;exitX=0;exitY=0.5;exitDx=0;exitDy=0;" parent="1" source="_7YUsY37ZqRuh6ZpaFpD-3" target="_7YUsY37ZqRuh6ZpaFpD-105" edge="1">
          <mxGeometry relative="1" as="geometry">
            <mxPoint x="-400" y="-50" as="sourcePoint" />
            <mxPoint x="-190" y="-65" as="targetPoint" />
          </mxGeometry>
        </mxCell>
        <mxCell id="BchM0v5HkjgXGt6HoBju-24" value="1" style="resizable=0;html=1;whiteSpace=wrap;align=right;verticalAlign=bottom;" parent="BchM0v5HkjgXGt6HoBju-23" connectable="0" vertex="1">
          <mxGeometry x="1" relative="1" as="geometry" />
        </mxCell>
        <mxCell id="BchM0v5HkjgXGt6HoBju-26" value="HELMETS" style="rounded=0;whiteSpace=wrap;html=1;fillColor=#d5e8d4;strokeColor=#82b366;" parent="1" vertex="1">
          <mxGeometry x="-230" y="-190" width="120" height="60" as="geometry" />
        </mxCell>
        <mxCell id="BchM0v5HkjgXGt6HoBju-27" value="Brand" style="ellipse;whiteSpace=wrap;html=1;align=center;" parent="1" vertex="1">
          <mxGeometry x="-220" y="-105" width="100" height="40" as="geometry" />
        </mxCell>
        <mxCell id="BchM0v5HkjgXGt6HoBju-28" value="Helmet_id" style="ellipse;whiteSpace=wrap;html=1;align=center;fontStyle=4;fillColor=#dae8fc;strokeColor=#6c8ebf;" parent="1" vertex="1">
          <mxGeometry x="-335" y="-105" width="100" height="40" as="geometry" />
        </mxCell>
        <mxCell id="BchM0v5HkjgXGt6HoBju-29" value="Size" style="ellipse;whiteSpace=wrap;html=1;align=center;" parent="1" vertex="1">
          <mxGeometry x="-100" y="-105" width="100" height="40" as="geometry" />
        </mxCell>
        <mxCell id="BchM0v5HkjgXGt6HoBju-30" value="RENTS" style="shape=rhombus;perimeter=rhombusPerimeter;whiteSpace=wrap;html=1;align=center;" parent="1" vertex="1">
          <mxGeometry x="-420" y="-190" width="120" height="60" as="geometry" />
        </mxCell>
        <mxCell id="BchM0v5HkjgXGt6HoBju-31" value="" style="endArrow=none;html=1;rounded=0;entryX=0;entryY=0.5;entryDx=0;entryDy=0;exitX=1;exitY=0.5;exitDx=0;exitDy=0;" parent="1" source="_7YUsY37ZqRuh6ZpaFpD-2" target="BchM0v5HkjgXGt6HoBju-30" edge="1">
          <mxGeometry relative="1" as="geometry">
            <mxPoint x="-380" y="-35" as="sourcePoint" />
            <mxPoint x="-40" y="-35" as="targetPoint" />
          </mxGeometry>
        </mxCell>
        <mxCell id="BchM0v5HkjgXGt6HoBju-32" value="1" style="resizable=0;html=1;whiteSpace=wrap;align=right;verticalAlign=bottom;" parent="BchM0v5HkjgXGt6HoBju-31" connectable="0" vertex="1">
          <mxGeometry x="1" relative="1" as="geometry" />
        </mxCell>
        <mxCell id="BchM0v5HkjgXGt6HoBju-33" value="" style="endArrow=none;html=1;rounded=0;entryX=1;entryY=0.5;entryDx=0;entryDy=0;exitX=0;exitY=0.5;exitDx=0;exitDy=0;" parent="1" source="BchM0v5HkjgXGt6HoBju-26" edge="1">
          <mxGeometry relative="1" as="geometry">
            <mxPoint x="210" y="-50" as="sourcePoint" />
            <mxPoint x="-300" y="-160" as="targetPoint" />
          </mxGeometry>
        </mxCell>
        <mxCell id="BchM0v5HkjgXGt6HoBju-34" value="1" style="resizable=0;html=1;whiteSpace=wrap;align=right;verticalAlign=bottom;" parent="BchM0v5HkjgXGt6HoBju-33" connectable="0" vertex="1">
          <mxGeometry x="1" relative="1" as="geometry" />
        </mxCell>
        <mxCell id="BchM0v5HkjgXGt6HoBju-35" value="POLES" style="rounded=0;whiteSpace=wrap;html=1;fillColor=#d5e8d4;strokeColor=#82b366;" parent="1" vertex="1">
          <mxGeometry x="240" y="-190" width="120" height="60" as="geometry" />
        </mxCell>
        <mxCell id="BchM0v5HkjgXGt6HoBju-36" value="Brand" style="ellipse;whiteSpace=wrap;html=1;align=center;" parent="1" vertex="1">
          <mxGeometry x="250" y="-105" width="100" height="40" as="geometry" />
        </mxCell>
        <mxCell id="BchM0v5HkjgXGt6HoBju-37" value="Poles_id" style="ellipse;whiteSpace=wrap;html=1;align=center;fontStyle=4;fillColor=#dae8fc;strokeColor=#6c8ebf;" parent="1" vertex="1">
          <mxGeometry x="130" y="-105" width="100" height="40" as="geometry" />
        </mxCell>
        <mxCell id="BchM0v5HkjgXGt6HoBju-38" value="Length" style="ellipse;whiteSpace=wrap;html=1;align=center;" parent="1" vertex="1">
          <mxGeometry x="370" y="-105" width="100" height="40" as="geometry" />
        </mxCell>
        <mxCell id="BchM0v5HkjgXGt6HoBju-39" value="RENTS" style="shape=rhombus;perimeter=rhombusPerimeter;whiteSpace=wrap;html=1;align=center;" parent="1" vertex="1">
          <mxGeometry y="-190" width="120" height="60" as="geometry" />
        </mxCell>
        <mxCell id="BchM0v5HkjgXGt6HoBju-40" value="" style="endArrow=none;html=1;rounded=0;entryX=0;entryY=0.5;entryDx=0;entryDy=0;exitX=1;exitY=0.5;exitDx=0;exitDy=0;" parent="1" source="_7YUsY37ZqRuh6ZpaFpD-2" target="BchM0v5HkjgXGt6HoBju-39" edge="1">
          <mxGeometry relative="1" as="geometry">
            <mxPoint x="-200" y="50" as="sourcePoint" />
            <mxPoint x="170" y="115" as="targetPoint" />
          </mxGeometry>
        </mxCell>
        <mxCell id="BchM0v5HkjgXGt6HoBju-41" value="1" style="resizable=0;html=1;whiteSpace=wrap;align=right;verticalAlign=bottom;" parent="BchM0v5HkjgXGt6HoBju-40" connectable="0" vertex="1">
          <mxGeometry x="1" relative="1" as="geometry" />
        </mxCell>
        <mxCell id="BchM0v5HkjgXGt6HoBju-42" value="" style="endArrow=none;html=1;rounded=0;entryX=1;entryY=0.5;entryDx=0;entryDy=0;exitX=0;exitY=0.5;exitDx=0;exitDy=0;" parent="1" source="BchM0v5HkjgXGt6HoBju-35" target="BchM0v5HkjgXGt6HoBju-39" edge="1">
          <mxGeometry relative="1" as="geometry">
            <mxPoint x="420" y="100" as="sourcePoint" />
            <mxPoint x="50" y="150" as="targetPoint" />
          </mxGeometry>
        </mxCell>
        <mxCell id="BchM0v5HkjgXGt6HoBju-43" value="1" style="resizable=0;html=1;whiteSpace=wrap;align=right;verticalAlign=bottom;" parent="BchM0v5HkjgXGt6HoBju-42" connectable="0" vertex="1">
          <mxGeometry x="1" relative="1" as="geometry" />
        </mxCell>
        <mxCell id="BchM0v5HkjgXGt6HoBju-44" value="Drives IN" style="shape=rhombus;perimeter=rhombusPerimeter;whiteSpace=wrap;html=1;align=center;" parent="1" vertex="1">
          <mxGeometry x="-320" y="485" width="100" height="50" as="geometry" />
        </mxCell>
        <mxCell id="BchM0v5HkjgXGt6HoBju-45" value="First_Name" style="ellipse;whiteSpace=wrap;html=1;" parent="1" vertex="1">
          <mxGeometry x="330" y="40" width="100" height="40" as="geometry" />
        </mxCell>
        <mxCell id="BchM0v5HkjgXGt6HoBju-46" value="Last_Name" style="ellipse;whiteSpace=wrap;html=1;" parent="1" vertex="1">
          <mxGeometry x="330" y="90" width="100" height="40" as="geometry" />
        </mxCell>
        <mxCell id="BchM0v5HkjgXGt6HoBju-47" value="" style="endArrow=none;html=1;rounded=0;exitX=0;exitY=0.5;exitDx=0;exitDy=0;" parent="1" source="BchM0v5HkjgXGt6HoBju-46" edge="1">
          <mxGeometry relative="1" as="geometry">
            <mxPoint x="560" y="150" as="sourcePoint" />
            <mxPoint x="290" y="90" as="targetPoint" />
          </mxGeometry>
        </mxCell>
        <mxCell id="BchM0v5HkjgXGt6HoBju-48" value="" style="endArrow=none;html=1;rounded=0;exitX=1;exitY=0.5;exitDx=0;exitDy=0;entryX=0;entryY=0.5;entryDx=0;entryDy=0;" parent="1" source="_7YUsY37ZqRuh6ZpaFpD-68" target="BchM0v5HkjgXGt6HoBju-45" edge="1">
          <mxGeometry relative="1" as="geometry">
            <mxPoint x="520" y="110" as="sourcePoint" />
            <mxPoint x="720" y="150" as="targetPoint" />
          </mxGeometry>
        </mxCell>
        <mxCell id="BchM0v5HkjgXGt6HoBju-49" value="Name" style="ellipse;whiteSpace=wrap;html=1;align=center;" parent="1" vertex="1">
          <mxGeometry x="-870" y="-610" width="100" height="40" as="geometry" />
        </mxCell>
        <mxCell id="BchM0v5HkjgXGt6HoBju-50" value="First_Name" style="ellipse;whiteSpace=wrap;html=1;" parent="1" vertex="1">
          <mxGeometry x="-980" y="-587" width="100" height="40" as="geometry" />
        </mxCell>
        <mxCell id="BchM0v5HkjgXGt6HoBju-51" value="Last_Name" style="ellipse;whiteSpace=wrap;html=1;" parent="1" vertex="1">
          <mxGeometry x="-980" y="-633" width="100" height="40" as="geometry" />
        </mxCell>
        <mxCell id="BchM0v5HkjgXGt6HoBju-52" value="" style="endArrow=none;html=1;rounded=0;exitX=1;exitY=0.5;exitDx=0;exitDy=0;entryX=0;entryY=0.5;entryDx=0;entryDy=0;" parent="1" source="BchM0v5HkjgXGt6HoBju-51" target="BchM0v5HkjgXGt6HoBju-49" edge="1">
          <mxGeometry relative="1" as="geometry">
            <mxPoint x="-830" y="-510" as="sourcePoint" />
            <mxPoint x="-840" y="-530" as="targetPoint" />
          </mxGeometry>
        </mxCell>
        <mxCell id="BchM0v5HkjgXGt6HoBju-53" value="" style="endArrow=none;html=1;rounded=0;exitX=0;exitY=0.5;exitDx=0;exitDy=0;entryX=1;entryY=0.5;entryDx=0;entryDy=0;" parent="1" source="BchM0v5HkjgXGt6HoBju-49" target="BchM0v5HkjgXGt6HoBju-50" edge="1">
          <mxGeometry relative="1" as="geometry">
            <mxPoint x="-870" y="-550" as="sourcePoint" />
            <mxPoint x="-670" y="-510" as="targetPoint" />
          </mxGeometry>
        </mxCell>
        <mxCell id="Y5xDJYC6LvKC5Z9svkRs-1" value="Modell" style="ellipse;whiteSpace=wrap;html=1;align=center;" parent="1" vertex="1">
          <mxGeometry x="400" y="-260" width="100" height="40" as="geometry" />
        </mxCell>
        <mxCell id="Y5xDJYC6LvKC5Z9svkRs-3" value="Arrival_date" style="ellipse;whiteSpace=wrap;html=1;" parent="1" vertex="1">
          <mxGeometry x="-870" y="-400" width="100" height="40" as="geometry" />
        </mxCell>
        <mxCell id="Y5xDJYC6LvKC5Z9svkRs-4" value="Departure_date" style="ellipse;whiteSpace=wrap;html=1;" parent="1" vertex="1">
          <mxGeometry x="-870" y="-250" width="100" height="40" as="geometry" />
        </mxCell>
        <mxCell id="mtELeGEA9m5529zmG4a9-1" value="City" style="ellipse;whiteSpace=wrap;html=1;" parent="1" vertex="1">
          <mxGeometry x="-410" y="-610" width="100" height="40" as="geometry" />
        </mxCell>
        <mxCell id="mtELeGEA9m5529zmG4a9-2" value="" style="endArrow=none;html=1;rounded=0;exitX=0;exitY=0.5;exitDx=0;exitDy=0;" parent="1" source="mtELeGEA9m5529zmG4a9-1" target="_7YUsY37ZqRuh6ZpaFpD-13" edge="1">
          <mxGeometry relative="1" as="geometry">
            <mxPoint x="-340" y="-722.5" as="sourcePoint" />
            <mxPoint x="-430" y="-687.5" as="targetPoint" />
          </mxGeometry>
        </mxCell>
        <mxCell id="mtELeGEA9m5529zmG4a9-3" value="Country" style="ellipse;whiteSpace=wrap;html=1;" parent="1" vertex="1">
          <mxGeometry x="-410" y="-560" width="100" height="40" as="geometry" />
        </mxCell>
        <mxCell id="mtELeGEA9m5529zmG4a9-4" value="" style="endArrow=none;html=1;rounded=0;entryX=1;entryY=0.5;entryDx=0;entryDy=0;exitX=0;exitY=0.5;exitDx=0;exitDy=0;" parent="1" source="mtELeGEA9m5529zmG4a9-3" target="_7YUsY37ZqRuh6ZpaFpD-13" edge="1">
          <mxGeometry relative="1" as="geometry">
            <mxPoint x="-250" y="-707.5" as="sourcePoint" />
            <mxPoint x="-390" y="-705" as="targetPoint" />
          </mxGeometry>
        </mxCell>
        <mxCell id="mtELeGEA9m5529zmG4a9-5" value="Address" style="ellipse;shape=doubleEllipse;margin=3;whiteSpace=wrap;html=1;align=center;" parent="1" vertex="1">
          <mxGeometry x="190" y="322" width="100" height="40" as="geometry" />
        </mxCell>
        <mxCell id="mtELeGEA9m5529zmG4a9-6" value="Street" style="ellipse;whiteSpace=wrap;html=1;" parent="1" vertex="1">
          <mxGeometry x="330" y="220" width="100" height="40" as="geometry" />
        </mxCell>
        <mxCell id="mtELeGEA9m5529zmG4a9-7" value="House_num" style="ellipse;whiteSpace=wrap;html=1;" parent="1" vertex="1">
          <mxGeometry x="330" y="270" width="100" height="40" as="geometry" />
        </mxCell>
        <mxCell id="mtELeGEA9m5529zmG4a9-8" value="Post_code" style="ellipse;whiteSpace=wrap;html=1;" parent="1" vertex="1">
          <mxGeometry x="330" y="420" width="100" height="40" as="geometry" />
        </mxCell>
        <mxCell id="mtELeGEA9m5529zmG4a9-9" value="" style="endArrow=none;html=1;rounded=0;entryX=1;entryY=0.5;entryDx=0;entryDy=0;exitX=0;exitY=0.5;exitDx=0;exitDy=0;" parent="1" source="mtELeGEA9m5529zmG4a9-7" target="mtELeGEA9m5529zmG4a9-5" edge="1">
          <mxGeometry relative="1" as="geometry">
            <mxPoint x="760" y="190" as="sourcePoint" />
            <mxPoint x="920" y="190" as="targetPoint" />
          </mxGeometry>
        </mxCell>
        <mxCell id="mtELeGEA9m5529zmG4a9-10" value="" style="endArrow=none;html=1;rounded=0;exitX=1;exitY=0.5;exitDx=0;exitDy=0;entryX=0;entryY=0.5;entryDx=0;entryDy=0;" parent="1" source="mtELeGEA9m5529zmG4a9-5" target="mtELeGEA9m5529zmG4a9-6" edge="1">
          <mxGeometry relative="1" as="geometry">
            <mxPoint x="760" y="190" as="sourcePoint" />
            <mxPoint x="920" y="190" as="targetPoint" />
          </mxGeometry>
        </mxCell>
        <mxCell id="mtELeGEA9m5529zmG4a9-11" value="" style="endArrow=none;html=1;rounded=0;exitX=1;exitY=0.5;exitDx=0;exitDy=0;entryX=0;entryY=0.5;entryDx=0;entryDy=0;" parent="1" source="mtELeGEA9m5529zmG4a9-5" target="mtELeGEA9m5529zmG4a9-8" edge="1">
          <mxGeometry relative="1" as="geometry">
            <mxPoint x="760" y="190" as="sourcePoint" />
            <mxPoint x="920" y="190" as="targetPoint" />
          </mxGeometry>
        </mxCell>
        <mxCell id="mtELeGEA9m5529zmG4a9-12" value="City" style="ellipse;whiteSpace=wrap;html=1;" parent="1" vertex="1">
          <mxGeometry x="330" y="322" width="100" height="40" as="geometry" />
        </mxCell>
        <mxCell id="mtELeGEA9m5529zmG4a9-13" value="" style="endArrow=none;html=1;rounded=0;entryX=1;entryY=0.5;entryDx=0;entryDy=0;exitX=0;exitY=0.5;exitDx=0;exitDy=0;" parent="1" source="mtELeGEA9m5529zmG4a9-12" target="mtELeGEA9m5529zmG4a9-5" edge="1">
          <mxGeometry relative="1" as="geometry">
            <mxPoint x="820" y="157.5" as="sourcePoint" />
            <mxPoint x="730" y="192.5" as="targetPoint" />
          </mxGeometry>
        </mxCell>
        <mxCell id="mtELeGEA9m5529zmG4a9-14" value="Country" style="ellipse;whiteSpace=wrap;html=1;" parent="1" vertex="1">
          <mxGeometry x="330" y="370" width="100" height="40" as="geometry" />
        </mxCell>
        <mxCell id="mtELeGEA9m5529zmG4a9-15" value="" style="endArrow=none;html=1;rounded=0;entryX=1;entryY=0.5;entryDx=0;entryDy=0;exitX=0;exitY=0.5;exitDx=0;exitDy=0;" parent="1" source="mtELeGEA9m5529zmG4a9-14" target="mtELeGEA9m5529zmG4a9-5" edge="1">
          <mxGeometry relative="1" as="geometry">
            <mxPoint x="910" y="172.5" as="sourcePoint" />
            <mxPoint x="770" y="175" as="targetPoint" />
          </mxGeometry>
        </mxCell>
        <mxCell id="mtELeGEA9m5529zmG4a9-16" value="Address" style="ellipse;shape=doubleEllipse;margin=3;whiteSpace=wrap;html=1;align=center;" parent="1" vertex="1">
          <mxGeometry x="150" y="-630" width="100" height="40" as="geometry" />
        </mxCell>
        <mxCell id="mtELeGEA9m5529zmG4a9-17" value="Street" style="ellipse;whiteSpace=wrap;html=1;" parent="1" vertex="1">
          <mxGeometry x="300" y="-730" width="100" height="40" as="geometry" />
        </mxCell>
        <mxCell id="mtELeGEA9m5529zmG4a9-18" value="House_num" style="ellipse;whiteSpace=wrap;html=1;" parent="1" vertex="1">
          <mxGeometry x="300" y="-680" width="100" height="40" as="geometry" />
        </mxCell>
        <mxCell id="mtELeGEA9m5529zmG4a9-19" value="Post_code" style="ellipse;whiteSpace=wrap;html=1;" parent="1" vertex="1">
          <mxGeometry x="300" y="-530" width="100" height="40" as="geometry" />
        </mxCell>
        <mxCell id="mtELeGEA9m5529zmG4a9-21" value="" style="endArrow=none;html=1;rounded=0;exitX=1;exitY=0.5;exitDx=0;exitDy=0;entryX=0;entryY=0.5;entryDx=0;entryDy=0;" parent="1" source="mtELeGEA9m5529zmG4a9-16" target="mtELeGEA9m5529zmG4a9-17" edge="1">
          <mxGeometry relative="1" as="geometry">
            <mxPoint x="230" y="-420" as="sourcePoint" />
            <mxPoint x="390" y="-420" as="targetPoint" />
          </mxGeometry>
        </mxCell>
        <mxCell id="mtELeGEA9m5529zmG4a9-22" value="" style="endArrow=none;html=1;rounded=0;exitX=1;exitY=0.5;exitDx=0;exitDy=0;entryX=0;entryY=0.5;entryDx=0;entryDy=0;" parent="1" source="mtELeGEA9m5529zmG4a9-16" target="mtELeGEA9m5529zmG4a9-19" edge="1">
          <mxGeometry relative="1" as="geometry">
            <mxPoint x="230" y="-420" as="sourcePoint" />
            <mxPoint x="390" y="-420" as="targetPoint" />
          </mxGeometry>
        </mxCell>
        <mxCell id="mtELeGEA9m5529zmG4a9-23" value="City" style="ellipse;whiteSpace=wrap;html=1;" parent="1" vertex="1">
          <mxGeometry x="300" y="-630" width="100" height="40" as="geometry" />
        </mxCell>
        <mxCell id="mtELeGEA9m5529zmG4a9-24" value="" style="endArrow=none;html=1;rounded=0;entryX=1;entryY=0.5;entryDx=0;entryDy=0;exitX=0;exitY=0.5;exitDx=0;exitDy=0;" parent="1" source="mtELeGEA9m5529zmG4a9-23" target="mtELeGEA9m5529zmG4a9-16" edge="1">
          <mxGeometry relative="1" as="geometry">
            <mxPoint x="300" y="-620" as="sourcePoint" />
            <mxPoint x="200" y="-417.5" as="targetPoint" />
          </mxGeometry>
        </mxCell>
        <mxCell id="mtELeGEA9m5529zmG4a9-25" value="Country" style="ellipse;whiteSpace=wrap;html=1;" parent="1" vertex="1">
          <mxGeometry x="300" y="-580" width="100" height="40" as="geometry" />
        </mxCell>
        <mxCell id="mtELeGEA9m5529zmG4a9-26" value="" style="endArrow=none;html=1;rounded=0;entryX=1;entryY=0.5;entryDx=0;entryDy=0;exitX=0;exitY=0.5;exitDx=0;exitDy=0;" parent="1" source="mtELeGEA9m5529zmG4a9-25" target="mtELeGEA9m5529zmG4a9-16" edge="1">
          <mxGeometry relative="1" as="geometry">
            <mxPoint x="380" y="-437.5" as="sourcePoint" />
            <mxPoint x="240" y="-435" as="targetPoint" />
          </mxGeometry>
        </mxCell>
        <mxCell id="TnhRacV6PNLluVVr3HMx-1" value="" style="endArrow=none;html=1;rounded=0;entryX=0;entryY=0.5;entryDx=0;entryDy=0;exitX=1;exitY=0.5;exitDx=0;exitDy=0;" edge="1" parent="1" source="mtELeGEA9m5529zmG4a9-16" target="mtELeGEA9m5529zmG4a9-18">
          <mxGeometry width="50" height="50" relative="1" as="geometry">
            <mxPoint x="150" y="-450" as="sourcePoint" />
            <mxPoint x="90" y="-650" as="targetPoint" />
          </mxGeometry>
        </mxCell>
        <mxCell id="TnhRacV6PNLluVVr3HMx-9" value="" style="endArrow=none;html=1;rounded=0;entryX=0;entryY=0.5;entryDx=0;entryDy=0;exitX=1;exitY=0.5;exitDx=0;exitDy=0;" edge="1" parent="1" source="Y5xDJYC6LvKC5Z9svkRs-4" target="_7YUsY37ZqRuh6ZpaFpD-2">
          <mxGeometry width="50" height="50" relative="1" as="geometry">
            <mxPoint x="-770" y="-230" as="sourcePoint" />
            <mxPoint x="-720" y="-280" as="targetPoint" />
          </mxGeometry>
        </mxCell>
        <mxCell id="TnhRacV6PNLluVVr3HMx-10" value="" style="endArrow=none;html=1;rounded=0;exitX=1;exitY=0.5;exitDx=0;exitDy=0;entryX=0;entryY=0.5;entryDx=0;entryDy=0;" edge="1" parent="1" source="_7YUsY37ZqRuh6ZpaFpD-21" target="_7YUsY37ZqRuh6ZpaFpD-2">
          <mxGeometry width="50" height="50" relative="1" as="geometry">
            <mxPoint x="-720" y="-400" as="sourcePoint" />
            <mxPoint x="-670" y="-450" as="targetPoint" />
          </mxGeometry>
        </mxCell>
        <mxCell id="TnhRacV6PNLluVVr3HMx-11" value="" style="endArrow=none;html=1;rounded=0;exitX=1;exitY=0.5;exitDx=0;exitDy=0;entryX=0;entryY=0.5;entryDx=0;entryDy=0;" edge="1" parent="1" source="_7YUsY37ZqRuh6ZpaFpD-27" target="_7YUsY37ZqRuh6ZpaFpD-2">
          <mxGeometry width="50" height="50" relative="1" as="geometry">
            <mxPoint x="-720" y="-400" as="sourcePoint" />
            <mxPoint x="-670" y="-450" as="targetPoint" />
          </mxGeometry>
        </mxCell>
        <mxCell id="TnhRacV6PNLluVVr3HMx-12" value="" style="endArrow=none;html=1;rounded=0;exitX=1;exitY=0.5;exitDx=0;exitDy=0;entryX=0;entryY=0.5;entryDx=0;entryDy=0;" edge="1" parent="1" source="Y5xDJYC6LvKC5Z9svkRs-3" target="_7YUsY37ZqRuh6ZpaFpD-2">
          <mxGeometry width="50" height="50" relative="1" as="geometry">
            <mxPoint x="-290" y="-460" as="sourcePoint" />
            <mxPoint x="-240" y="-510" as="targetPoint" />
          </mxGeometry>
        </mxCell>
        <mxCell id="TnhRacV6PNLluVVr3HMx-13" value="" style="endArrow=none;html=1;rounded=0;exitX=1;exitY=0.5;exitDx=0;exitDy=0;entryX=0;entryY=0.5;entryDx=0;entryDy=0;" edge="1" parent="1" source="_7YUsY37ZqRuh6ZpaFpD-14" target="_7YUsY37ZqRuh6ZpaFpD-2">
          <mxGeometry width="50" height="50" relative="1" as="geometry">
            <mxPoint x="-290" y="-460" as="sourcePoint" />
            <mxPoint x="-670" y="-450" as="targetPoint" />
          </mxGeometry>
        </mxCell>
        <mxCell id="TnhRacV6PNLluVVr3HMx-14" value="" style="endArrow=none;html=1;rounded=0;entryX=0;entryY=0.5;entryDx=0;entryDy=0;" edge="1" parent="1" target="_7YUsY37ZqRuh6ZpaFpD-2">
          <mxGeometry width="50" height="50" relative="1" as="geometry">
            <mxPoint x="-770" y="-480" as="sourcePoint" />
            <mxPoint x="-720" y="-530" as="targetPoint" />
          </mxGeometry>
        </mxCell>
        <mxCell id="TnhRacV6PNLluVVr3HMx-15" value="" style="endArrow=none;html=1;rounded=0;entryX=1;entryY=0.5;entryDx=0;entryDy=0;exitX=0;exitY=0.5;exitDx=0;exitDy=0;" edge="1" parent="1" source="_7YUsY37ZqRuh6ZpaFpD-2" target="_7YUsY37ZqRuh6ZpaFpD-30">
          <mxGeometry width="50" height="50" relative="1" as="geometry">
            <mxPoint x="-670" y="-450" as="sourcePoint" />
            <mxPoint x="-620" y="-500" as="targetPoint" />
          </mxGeometry>
        </mxCell>
        <mxCell id="TnhRacV6PNLluVVr3HMx-16" value="" style="endArrow=none;html=1;rounded=0;exitX=0.5;exitY=0;exitDx=0;exitDy=0;entryX=0.5;entryY=1;entryDx=0;entryDy=0;" edge="1" parent="1" source="_7YUsY37ZqRuh6ZpaFpD-2" target="_7YUsY37ZqRuh6ZpaFpD-13">
          <mxGeometry width="50" height="50" relative="1" as="geometry">
            <mxPoint x="-290" y="-460" as="sourcePoint" />
            <mxPoint x="-240" y="-510" as="targetPoint" />
          </mxGeometry>
        </mxCell>
        <mxCell id="TnhRacV6PNLluVVr3HMx-17" value="" style="endArrow=none;html=1;rounded=0;exitX=0.5;exitY=0;exitDx=0;exitDy=0;entryX=0.5;entryY=1;entryDx=0;entryDy=0;" edge="1" parent="1" source="_7YUsY37ZqRuh6ZpaFpD-2" target="_7YUsY37ZqRuh6ZpaFpD-32">
          <mxGeometry width="50" height="50" relative="1" as="geometry">
            <mxPoint x="-290" y="-460" as="sourcePoint" />
            <mxPoint x="-240" y="-510" as="targetPoint" />
          </mxGeometry>
        </mxCell>
        <mxCell id="TnhRacV6PNLluVVr3HMx-18" value="" style="endArrow=none;html=1;rounded=0;exitX=0.5;exitY=0;exitDx=0;exitDy=0;entryX=0.5;entryY=1;entryDx=0;entryDy=0;" edge="1" parent="1" source="_7YUsY37ZqRuh6ZpaFpD-2" target="_7YUsY37ZqRuh6ZpaFpD-24">
          <mxGeometry width="50" height="50" relative="1" as="geometry">
            <mxPoint x="-290" y="-460" as="sourcePoint" />
            <mxPoint x="-240" y="-510" as="targetPoint" />
          </mxGeometry>
        </mxCell>
        <mxCell id="TnhRacV6PNLluVVr3HMx-19" value="" style="endArrow=none;html=1;rounded=0;exitX=0.5;exitY=0;exitDx=0;exitDy=0;entryX=0.5;entryY=1;entryDx=0;entryDy=0;" edge="1" parent="1" source="_7YUsY37ZqRuh6ZpaFpD-2" target="BchM0v5HkjgXGt6HoBju-49">
          <mxGeometry width="50" height="50" relative="1" as="geometry">
            <mxPoint x="-290" y="-460" as="sourcePoint" />
            <mxPoint x="-240" y="-510" as="targetPoint" />
          </mxGeometry>
        </mxCell>
        <mxCell id="TnhRacV6PNLluVVr3HMx-20" value="" style="endArrow=none;html=1;rounded=0;exitX=0;exitY=0.5;exitDx=0;exitDy=0;entryX=1;entryY=0.5;entryDx=0;entryDy=0;" edge="1" parent="1" source="_7YUsY37ZqRuh6ZpaFpD-4" target="_7YUsY37ZqRuh6ZpaFpD-91">
          <mxGeometry width="50" height="50" relative="1" as="geometry">
            <mxPoint x="-290" y="140" as="sourcePoint" />
            <mxPoint x="-240" y="90" as="targetPoint" />
          </mxGeometry>
        </mxCell>
        <mxCell id="TnhRacV6PNLluVVr3HMx-21" value="" style="endArrow=none;html=1;rounded=0;exitX=0;exitY=0.5;exitDx=0;exitDy=0;entryX=1;entryY=0.5;entryDx=0;entryDy=0;" edge="1" parent="1" source="_7YUsY37ZqRuh6ZpaFpD-4" target="_7YUsY37ZqRuh6ZpaFpD-92">
          <mxGeometry width="50" height="50" relative="1" as="geometry">
            <mxPoint x="-290" y="140" as="sourcePoint" />
            <mxPoint x="-240" y="90" as="targetPoint" />
          </mxGeometry>
        </mxCell>
        <mxCell id="TnhRacV6PNLluVVr3HMx-22" value="" style="endArrow=none;html=1;rounded=0;exitX=0;exitY=0.5;exitDx=0;exitDy=0;entryX=1;entryY=0.5;entryDx=0;entryDy=0;" edge="1" parent="1" source="_7YUsY37ZqRuh6ZpaFpD-4" target="_7YUsY37ZqRuh6ZpaFpD-89">
          <mxGeometry width="50" height="50" relative="1" as="geometry">
            <mxPoint x="-290" y="140" as="sourcePoint" />
            <mxPoint x="-240" y="90" as="targetPoint" />
          </mxGeometry>
        </mxCell>
        <mxCell id="TnhRacV6PNLluVVr3HMx-23" value="" style="endArrow=none;html=1;rounded=0;exitX=0;exitY=0.5;exitDx=0;exitDy=0;entryX=1;entryY=0.5;entryDx=0;entryDy=0;" edge="1" parent="1" source="_7YUsY37ZqRuh6ZpaFpD-4" target="_7YUsY37ZqRuh6ZpaFpD-90">
          <mxGeometry width="50" height="50" relative="1" as="geometry">
            <mxPoint x="-290" y="140" as="sourcePoint" />
            <mxPoint x="-240" y="90" as="targetPoint" />
          </mxGeometry>
        </mxCell>
        <mxCell id="TnhRacV6PNLluVVr3HMx-24" value="Accomodation_id" style="ellipse;whiteSpace=wrap;html=1;align=center;fontStyle=4;fillColor=#dae8fc;strokeColor=#6c8ebf;" vertex="1" parent="1">
          <mxGeometry x="-130" y="-630" width="100" height="40" as="geometry" />
        </mxCell>
        <mxCell id="TnhRacV6PNLluVVr3HMx-25" value="" style="endArrow=none;html=1;rounded=0;exitX=0;exitY=0.5;exitDx=0;exitDy=0;entryX=1;entryY=0.5;entryDx=0;entryDy=0;" edge="1" parent="1" source="_7YUsY37ZqRuh6ZpaFpD-5" target="_7YUsY37ZqRuh6ZpaFpD-51">
          <mxGeometry width="50" height="50" relative="1" as="geometry">
            <mxPoint x="-290" y="750" as="sourcePoint" />
            <mxPoint x="-240" y="700" as="targetPoint" />
          </mxGeometry>
        </mxCell>
        <mxCell id="TnhRacV6PNLluVVr3HMx-26" value="" style="endArrow=none;html=1;rounded=0;exitX=0;exitY=0.5;exitDx=0;exitDy=0;entryX=1;entryY=0.5;entryDx=0;entryDy=0;" edge="1" parent="1" source="_7YUsY37ZqRuh6ZpaFpD-5" target="_7YUsY37ZqRuh6ZpaFpD-48">
          <mxGeometry width="50" height="50" relative="1" as="geometry">
            <mxPoint x="-290" y="750" as="sourcePoint" />
            <mxPoint x="-240" y="700" as="targetPoint" />
          </mxGeometry>
        </mxCell>
        <mxCell id="TnhRacV6PNLluVVr3HMx-27" value="" style="endArrow=none;html=1;rounded=0;exitX=0;exitY=0.5;exitDx=0;exitDy=0;entryX=1;entryY=0.5;entryDx=0;entryDy=0;" edge="1" parent="1" source="_7YUsY37ZqRuh6ZpaFpD-5" target="_7YUsY37ZqRuh6ZpaFpD-49">
          <mxGeometry width="50" height="50" relative="1" as="geometry">
            <mxPoint x="-290" y="750" as="sourcePoint" />
            <mxPoint x="-240" y="700" as="targetPoint" />
          </mxGeometry>
        </mxCell>
        <mxCell id="TnhRacV6PNLluVVr3HMx-28" value="" style="endArrow=none;html=1;rounded=0;exitX=0;exitY=0.5;exitDx=0;exitDy=0;entryX=1;entryY=0.5;entryDx=0;entryDy=0;" edge="1" parent="1" source="_7YUsY37ZqRuh6ZpaFpD-5" target="_7YUsY37ZqRuh6ZpaFpD-46">
          <mxGeometry width="50" height="50" relative="1" as="geometry">
            <mxPoint x="-290" y="750" as="sourcePoint" />
            <mxPoint x="-240" y="700" as="targetPoint" />
          </mxGeometry>
        </mxCell>
        <mxCell id="TnhRacV6PNLluVVr3HMx-29" value="" style="endArrow=none;html=1;rounded=0;exitX=0;exitY=0.5;exitDx=0;exitDy=0;entryX=1;entryY=0.5;entryDx=0;entryDy=0;" edge="1" parent="1" source="_7YUsY37ZqRuh6ZpaFpD-5" target="_7YUsY37ZqRuh6ZpaFpD-47">
          <mxGeometry width="50" height="50" relative="1" as="geometry">
            <mxPoint x="-290" y="750" as="sourcePoint" />
            <mxPoint x="-240" y="700" as="targetPoint" />
          </mxGeometry>
        </mxCell>
        <mxCell id="TnhRacV6PNLluVVr3HMx-30" value="" style="endArrow=none;html=1;rounded=0;exitX=0;exitY=0.5;exitDx=0;exitDy=0;entryX=1;entryY=0.5;entryDx=0;entryDy=0;" edge="1" parent="1" source="_7YUsY37ZqRuh6ZpaFpD-5" target="_7YUsY37ZqRuh6ZpaFpD-50">
          <mxGeometry width="50" height="50" relative="1" as="geometry">
            <mxPoint x="-290" y="750" as="sourcePoint" />
            <mxPoint x="-240" y="700" as="targetPoint" />
          </mxGeometry>
        </mxCell>
        <mxCell id="TnhRacV6PNLluVVr3HMx-31" value="" style="endArrow=none;html=1;rounded=0;exitX=0;exitY=0.5;exitDx=0;exitDy=0;entryX=1;entryY=0.5;entryDx=0;entryDy=0;" edge="1" parent="1" source="_7YUsY37ZqRuh6ZpaFpD-5" target="_7YUsY37ZqRuh6ZpaFpD-45">
          <mxGeometry width="50" height="50" relative="1" as="geometry">
            <mxPoint x="-290" y="750" as="sourcePoint" />
            <mxPoint x="-240" y="700" as="targetPoint" />
          </mxGeometry>
        </mxCell>
        <mxCell id="TnhRacV6PNLluVVr3HMx-32" value="Shuttle_name" style="ellipse;whiteSpace=wrap;html=1;align=center;fontStyle=4;fillColor=#dae8fc;strokeColor=#6c8ebf;" vertex="1" parent="1">
          <mxGeometry x="-460" y="625" width="100" height="40" as="geometry" />
        </mxCell>
        <mxCell id="TnhRacV6PNLluVVr3HMx-33" value="" style="endArrow=none;html=1;rounded=0;entryX=0;entryY=0.5;entryDx=0;entryDy=0;exitX=1;exitY=0.5;exitDx=0;exitDy=0;" edge="1" parent="1" source="TnhRacV6PNLluVVr3HMx-32" target="_7YUsY37ZqRuh6ZpaFpD-202">
          <mxGeometry width="50" height="50" relative="1" as="geometry">
            <mxPoint x="-290" y="750" as="sourcePoint" />
            <mxPoint x="-240" y="700" as="targetPoint" />
          </mxGeometry>
        </mxCell>
        <mxCell id="TnhRacV6PNLluVVr3HMx-34" value="" style="endArrow=none;html=1;rounded=0;entryX=0.5;entryY=1;entryDx=0;entryDy=0;exitX=0.5;exitY=0;exitDx=0;exitDy=0;" edge="1" parent="1" source="_7YUsY37ZqRuh6ZpaFpD-65" target="_7YUsY37ZqRuh6ZpaFpD-202">
          <mxGeometry width="50" height="50" relative="1" as="geometry">
            <mxPoint x="-290" y="750" as="sourcePoint" />
            <mxPoint x="-240" y="700" as="targetPoint" />
          </mxGeometry>
        </mxCell>
        <mxCell id="TnhRacV6PNLluVVr3HMx-35" value="" style="endArrow=none;html=1;rounded=0;entryX=0.5;entryY=1;entryDx=0;entryDy=0;exitX=0.5;exitY=0;exitDx=0;exitDy=0;" edge="1" parent="1" source="_7YUsY37ZqRuh6ZpaFpD-62" target="_7YUsY37ZqRuh6ZpaFpD-202">
          <mxGeometry width="50" height="50" relative="1" as="geometry">
            <mxPoint x="-290" y="750" as="sourcePoint" />
            <mxPoint x="-240" y="700" as="targetPoint" />
          </mxGeometry>
        </mxCell>
        <mxCell id="TnhRacV6PNLluVVr3HMx-36" value="" style="endArrow=none;html=1;rounded=0;entryX=0.5;entryY=1;entryDx=0;entryDy=0;exitX=0.5;exitY=0;exitDx=0;exitDy=0;" edge="1" parent="1" source="_7YUsY37ZqRuh6ZpaFpD-63" target="_7YUsY37ZqRuh6ZpaFpD-202">
          <mxGeometry width="50" height="50" relative="1" as="geometry">
            <mxPoint x="-290" y="750" as="sourcePoint" />
            <mxPoint x="-240" y="700" as="targetPoint" />
          </mxGeometry>
        </mxCell>
        <mxCell id="TnhRacV6PNLluVVr3HMx-37" value="" style="endArrow=none;html=1;rounded=0;entryX=1;entryY=0.5;entryDx=0;entryDy=0;exitX=0;exitY=0.5;exitDx=0;exitDy=0;" edge="1" parent="1" source="_7YUsY37ZqRuh6ZpaFpD-64" target="_7YUsY37ZqRuh6ZpaFpD-202">
          <mxGeometry width="50" height="50" relative="1" as="geometry">
            <mxPoint x="-290" y="750" as="sourcePoint" />
            <mxPoint x="-240" y="700" as="targetPoint" />
          </mxGeometry>
        </mxCell>
        <mxCell id="TnhRacV6PNLluVVr3HMx-38" value="" style="endArrow=none;html=1;rounded=0;exitX=0.5;exitY=1;exitDx=0;exitDy=0;entryX=0.5;entryY=0;entryDx=0;entryDy=0;" edge="1" parent="1" source="BchM0v5HkjgXGt6HoBju-26" target="BchM0v5HkjgXGt6HoBju-28">
          <mxGeometry width="50" height="50" relative="1" as="geometry">
            <mxPoint x="-40" y="-110" as="sourcePoint" />
            <mxPoint x="10" y="-160" as="targetPoint" />
          </mxGeometry>
        </mxCell>
        <mxCell id="TnhRacV6PNLluVVr3HMx-39" value="" style="endArrow=none;html=1;rounded=0;exitX=0.5;exitY=0;exitDx=0;exitDy=0;entryX=0.5;entryY=1;entryDx=0;entryDy=0;" edge="1" parent="1" source="BchM0v5HkjgXGt6HoBju-27" target="BchM0v5HkjgXGt6HoBju-26">
          <mxGeometry width="50" height="50" relative="1" as="geometry">
            <mxPoint x="-40" y="-110" as="sourcePoint" />
            <mxPoint x="10" y="-160" as="targetPoint" />
          </mxGeometry>
        </mxCell>
        <mxCell id="TnhRacV6PNLluVVr3HMx-40" value="" style="endArrow=none;html=1;rounded=0;exitX=0.5;exitY=1;exitDx=0;exitDy=0;entryX=0.5;entryY=0;entryDx=0;entryDy=0;" edge="1" parent="1" source="BchM0v5HkjgXGt6HoBju-26" target="BchM0v5HkjgXGt6HoBju-29">
          <mxGeometry width="50" height="50" relative="1" as="geometry">
            <mxPoint x="-40" y="-110" as="sourcePoint" />
            <mxPoint x="10" y="-160" as="targetPoint" />
          </mxGeometry>
        </mxCell>
        <mxCell id="TnhRacV6PNLluVVr3HMx-41" value="" style="endArrow=none;html=1;rounded=0;exitX=0.5;exitY=0;exitDx=0;exitDy=0;entryX=0.5;entryY=1;entryDx=0;entryDy=0;" edge="1" parent="1" source="BchM0v5HkjgXGt6HoBju-37" target="BchM0v5HkjgXGt6HoBju-35">
          <mxGeometry width="50" height="50" relative="1" as="geometry">
            <mxPoint x="290" y="-110" as="sourcePoint" />
            <mxPoint x="340" y="-160" as="targetPoint" />
          </mxGeometry>
        </mxCell>
        <mxCell id="TnhRacV6PNLluVVr3HMx-42" value="" style="endArrow=none;html=1;rounded=0;exitX=0.5;exitY=0;exitDx=0;exitDy=0;entryX=0.5;entryY=1;entryDx=0;entryDy=0;" edge="1" parent="1" source="BchM0v5HkjgXGt6HoBju-36" target="BchM0v5HkjgXGt6HoBju-35">
          <mxGeometry width="50" height="50" relative="1" as="geometry">
            <mxPoint x="290" y="-110" as="sourcePoint" />
            <mxPoint x="340" y="-160" as="targetPoint" />
          </mxGeometry>
        </mxCell>
        <mxCell id="TnhRacV6PNLluVVr3HMx-43" value="" style="endArrow=none;html=1;rounded=0;entryX=0.5;entryY=0;entryDx=0;entryDy=0;exitX=0.5;exitY=1;exitDx=0;exitDy=0;" edge="1" parent="1" source="BchM0v5HkjgXGt6HoBju-35" target="BchM0v5HkjgXGt6HoBju-38">
          <mxGeometry width="50" height="50" relative="1" as="geometry">
            <mxPoint x="290" y="-110" as="sourcePoint" />
            <mxPoint x="340" y="-160" as="targetPoint" />
          </mxGeometry>
        </mxCell>
        <mxCell id="TnhRacV6PNLluVVr3HMx-45" value="" style="endArrow=none;html=1;rounded=0;entryX=0;entryY=0.5;entryDx=0;entryDy=0;exitX=1;exitY=0.5;exitDx=0;exitDy=0;" edge="1" parent="1" source="_7YUsY37ZqRuh6ZpaFpD-3" target="_7YUsY37ZqRuh6ZpaFpD-36">
          <mxGeometry width="50" height="50" relative="1" as="geometry">
            <mxPoint x="210" y="-250" as="sourcePoint" />
            <mxPoint x="260" y="-300" as="targetPoint" />
          </mxGeometry>
        </mxCell>
        <mxCell id="TnhRacV6PNLluVVr3HMx-46" value="" style="endArrow=none;html=1;rounded=0;entryX=0;entryY=0.5;entryDx=0;entryDy=0;exitX=1;exitY=0.5;exitDx=0;exitDy=0;" edge="1" parent="1" source="_7YUsY37ZqRuh6ZpaFpD-3" target="_7YUsY37ZqRuh6ZpaFpD-35">
          <mxGeometry width="50" height="50" relative="1" as="geometry">
            <mxPoint x="210" y="-250" as="sourcePoint" />
            <mxPoint x="260" y="-300" as="targetPoint" />
          </mxGeometry>
        </mxCell>
        <mxCell id="TnhRacV6PNLluVVr3HMx-47" value="" style="endArrow=none;html=1;rounded=0;entryX=0;entryY=0.5;entryDx=0;entryDy=0;exitX=1;exitY=0.5;exitDx=0;exitDy=0;" edge="1" parent="1" source="_7YUsY37ZqRuh6ZpaFpD-3" target="_7YUsY37ZqRuh6ZpaFpD-41">
          <mxGeometry width="50" height="50" relative="1" as="geometry">
            <mxPoint x="210" y="-250" as="sourcePoint" />
            <mxPoint x="260" y="-300" as="targetPoint" />
          </mxGeometry>
        </mxCell>
        <mxCell id="TnhRacV6PNLluVVr3HMx-48" value="" style="endArrow=none;html=1;rounded=0;entryX=0;entryY=0.5;entryDx=0;entryDy=0;exitX=1;exitY=0.5;exitDx=0;exitDy=0;" edge="1" parent="1" source="_7YUsY37ZqRuh6ZpaFpD-3" target="Y5xDJYC6LvKC5Z9svkRs-1">
          <mxGeometry width="50" height="50" relative="1" as="geometry">
            <mxPoint x="210" y="-250" as="sourcePoint" />
            <mxPoint x="260" y="-300" as="targetPoint" />
          </mxGeometry>
        </mxCell>
        <mxCell id="TnhRacV6PNLluVVr3HMx-49" value="" style="endArrow=none;html=1;rounded=0;exitX=0.5;exitY=0;exitDx=0;exitDy=0;entryX=0.5;entryY=1;entryDx=0;entryDy=0;" edge="1" parent="1" source="_7YUsY37ZqRuh6ZpaFpD-87" target="_7YUsY37ZqRuh6ZpaFpD-83">
          <mxGeometry width="50" height="50" relative="1" as="geometry">
            <mxPoint x="210" y="350" as="sourcePoint" />
            <mxPoint x="260" y="300" as="targetPoint" />
          </mxGeometry>
        </mxCell>
        <mxCell id="TnhRacV6PNLluVVr3HMx-50" value="" style="endArrow=none;html=1;rounded=0;exitX=0.5;exitY=0;exitDx=0;exitDy=0;entryX=0.5;entryY=1;entryDx=0;entryDy=0;" edge="1" parent="1" source="_7YUsY37ZqRuh6ZpaFpD-88" target="_7YUsY37ZqRuh6ZpaFpD-83">
          <mxGeometry width="50" height="50" relative="1" as="geometry">
            <mxPoint x="210" y="350" as="sourcePoint" />
            <mxPoint x="260" y="300" as="targetPoint" />
          </mxGeometry>
        </mxCell>
        <mxCell id="TnhRacV6PNLluVVr3HMx-51" value="" style="endArrow=none;html=1;rounded=0;exitX=0;exitY=0.5;exitDx=0;exitDy=0;entryX=1;entryY=0.5;entryDx=0;entryDy=0;" edge="1" parent="1" source="_7YUsY37ZqRuh6ZpaFpD-66" target="_7YUsY37ZqRuh6ZpaFpD-7">
          <mxGeometry width="50" height="50" relative="1" as="geometry">
            <mxPoint x="210" y="250" as="sourcePoint" />
            <mxPoint x="260" y="200" as="targetPoint" />
          </mxGeometry>
        </mxCell>
        <mxCell id="TnhRacV6PNLluVVr3HMx-52" value="" style="endArrow=none;html=1;rounded=0;entryX=0;entryY=0.5;entryDx=0;entryDy=0;exitX=1;exitY=0.5;exitDx=0;exitDy=0;" edge="1" parent="1" source="_7YUsY37ZqRuh6ZpaFpD-7" target="_7YUsY37ZqRuh6ZpaFpD-68">
          <mxGeometry width="50" height="50" relative="1" as="geometry">
            <mxPoint x="210" y="250" as="sourcePoint" />
            <mxPoint x="260" y="200" as="targetPoint" />
          </mxGeometry>
        </mxCell>
        <mxCell id="TnhRacV6PNLluVVr3HMx-53" value="" style="endArrow=none;html=1;rounded=0;entryX=0;entryY=0.5;entryDx=0;entryDy=0;exitX=1;exitY=0.5;exitDx=0;exitDy=0;" edge="1" parent="1" source="_7YUsY37ZqRuh6ZpaFpD-7" target="_7YUsY37ZqRuh6ZpaFpD-79">
          <mxGeometry width="50" height="50" relative="1" as="geometry">
            <mxPoint x="210" y="250" as="sourcePoint" />
            <mxPoint x="260" y="200" as="targetPoint" />
          </mxGeometry>
        </mxCell>
        <mxCell id="TnhRacV6PNLluVVr3HMx-54" value="" style="endArrow=none;html=1;rounded=0;exitX=0;exitY=0.5;exitDx=0;exitDy=0;entryX=1;entryY=0.5;entryDx=0;entryDy=0;" edge="1" parent="1" source="_7YUsY37ZqRuh6ZpaFpD-78" target="_7YUsY37ZqRuh6ZpaFpD-7">
          <mxGeometry width="50" height="50" relative="1" as="geometry">
            <mxPoint x="210" y="250" as="sourcePoint" />
            <mxPoint x="260" y="200" as="targetPoint" />
          </mxGeometry>
        </mxCell>
        <mxCell id="TnhRacV6PNLluVVr3HMx-55" value="" style="endArrow=none;html=1;rounded=0;exitX=0;exitY=0.5;exitDx=0;exitDy=0;entryX=0.5;entryY=1;entryDx=0;entryDy=0;" edge="1" parent="1" source="_7YUsY37ZqRuh6ZpaFpD-80" target="_7YUsY37ZqRuh6ZpaFpD-7">
          <mxGeometry width="50" height="50" relative="1" as="geometry">
            <mxPoint x="210" y="250" as="sourcePoint" />
            <mxPoint x="260" y="200" as="targetPoint" />
          </mxGeometry>
        </mxCell>
        <mxCell id="TnhRacV6PNLluVVr3HMx-56" value="" style="endArrow=none;html=1;rounded=0;exitX=0;exitY=0.5;exitDx=0;exitDy=0;entryX=0.5;entryY=1;entryDx=0;entryDy=0;" edge="1" parent="1" source="_7YUsY37ZqRuh6ZpaFpD-76" target="_7YUsY37ZqRuh6ZpaFpD-7">
          <mxGeometry width="50" height="50" relative="1" as="geometry">
            <mxPoint x="210" y="250" as="sourcePoint" />
            <mxPoint x="260" y="200" as="targetPoint" />
          </mxGeometry>
        </mxCell>
        <mxCell id="TnhRacV6PNLluVVr3HMx-57" value="" style="endArrow=none;html=1;rounded=0;exitX=0;exitY=0.5;exitDx=0;exitDy=0;entryX=0.5;entryY=1;entryDx=0;entryDy=0;" edge="1" parent="1" source="mtELeGEA9m5529zmG4a9-5" target="_7YUsY37ZqRuh6ZpaFpD-7">
          <mxGeometry width="50" height="50" relative="1" as="geometry">
            <mxPoint x="210" y="250" as="sourcePoint" />
            <mxPoint x="260" y="200" as="targetPoint" />
          </mxGeometry>
        </mxCell>
        <mxCell id="TnhRacV6PNLluVVr3HMx-58" value="" style="endArrow=none;html=1;rounded=0;exitX=0;exitY=0.5;exitDx=0;exitDy=0;entryX=0.5;entryY=1;entryDx=0;entryDy=0;" edge="1" parent="1" source="_7YUsY37ZqRuh6ZpaFpD-77" target="_7YUsY37ZqRuh6ZpaFpD-7">
          <mxGeometry width="50" height="50" relative="1" as="geometry">
            <mxPoint x="210" y="250" as="sourcePoint" />
            <mxPoint x="260" y="200" as="targetPoint" />
          </mxGeometry>
        </mxCell>
        <mxCell id="TnhRacV6PNLluVVr3HMx-59" value="" style="endArrow=none;html=1;rounded=0;exitX=0;exitY=0.5;exitDx=0;exitDy=0;entryX=0.5;entryY=1;entryDx=0;entryDy=0;" edge="1" parent="1" source="_7YUsY37ZqRuh6ZpaFpD-84" target="_7YUsY37ZqRuh6ZpaFpD-7">
          <mxGeometry width="50" height="50" relative="1" as="geometry">
            <mxPoint x="210" y="250" as="sourcePoint" />
            <mxPoint x="260" y="200" as="targetPoint" />
          </mxGeometry>
        </mxCell>
        <mxCell id="TnhRacV6PNLluVVr3HMx-60" value="Primary Key" style="ellipse;whiteSpace=wrap;html=1;align=center;fontStyle=4;fillColor=#dae8fc;strokeColor=#6c8ebf;" vertex="1" parent="1">
          <mxGeometry x="110" y="560" width="100" height="40" as="geometry" />
        </mxCell>
        <mxCell id="TnhRacV6PNLluVVr3HMx-61" value="ENTITY" style="rounded=0;whiteSpace=wrap;html=1;fillColor=#d5e8d4;strokeColor=#82b366;" vertex="1" parent="1">
          <mxGeometry x="100" y="610" width="120" height="60" as="geometry" />
        </mxCell>
      </root>
    </mxGraphModel>
  </diagram>
</mxfile>
